<?xml version="1.0" encoding="UTF-8"?>
<!DOCTYPE svg PUBLIC "-//W3C//DTD SVG 1.1//EN" "http://www.w3.org/Graphics/SVG/1.1/DTD/svg11.dtd">
<svg width="160mm" height="90mm" viewBox="0 0 16000 9000" version="1.1" xmlns="http://www.w3.org/2000/svg" xmlns:xlink="http://www.w3.org/1999/xlink" stroke-width="28.222" stroke-linejoin="round" xml:space="preserve">
 <path fill="rgb(255,255,255)" stroke="none" d="M 7987,8986 L -13,8986 -13,-13 15986,-13 15986,8986 7987,8986 Z "/>
 <path fill="none" stroke="rgb(179,179,179)" stroke-linejoin="round" d="M 7639,8159 L 1438,8159 1438,366 13839,366 13839,8159 7639,8159 Z "/>
 <path fill="none" stroke="rgb(179,179,179)" stroke-linejoin="round" d="M 13839,8158 L 1438,8158 "/>
 <path fill="none" stroke="rgb(179,179,179)" stroke-linejoin="round" d="M 13839,7378 L 1438,7378 "/>
 <path fill="none" stroke="rgb(179,179,179)" stroke-linejoin="round" d="M 13839,6599 L 1438,6599 "/>
 <path fill="none" stroke="rgb(179,179,179)" stroke-linejoin="round" d="M 13839,5819 L 1438,5819 "/>
 <path fill="none" stroke="rgb(179,179,179)" stroke-linejoin="round" d="M 13839,5040 L 1438,5040 "/>
 <path fill="none" stroke="rgb(179,179,179)" stroke-linejoin="round" d="M 13839,4262 L 1438,4262 "/>
 <path fill="none" stroke="rgb(179,179,179)" stroke-linejoin="round" d="M 13839,3482 L 1438,3482 "/>
 <path fill="none" stroke="rgb(179,179,179)" stroke-linejoin="round" d="M 13839,2703 L 1438,2703 "/>
 <path fill="none" stroke="rgb(179,179,179)" stroke-linejoin="round" d="M 13839,1923 L 1438,1923 "/>
 <path fill="none" stroke="rgb(179,179,179)" stroke-linejoin="round" d="M 13839,1144 L 1438,1144 "/>
 <path fill="none" stroke="rgb(179,179,179)" stroke-linejoin="round" d="M 13839,365 L 1438,365 "/>
 <path fill="none" stroke="rgb(179,179,179)" stroke-linejoin="round" d="M 1438,8308 L 1438,8158 "/>
 <path fill="none" stroke="rgb(179,179,179)" stroke-linejoin="round" d="M 1438,8308 L 1438,8158 "/>
 <path fill="none" stroke="rgb(179,179,179)" stroke-linejoin="round" d="M 2988,8308 L 2988,8158 "/>
 <path fill="none" stroke="rgb(179,179,179)" stroke-linejoin="round" d="M 2988,8308 L 2988,8158 "/>
 <path fill="none" stroke="rgb(179,179,179)" stroke-linejoin="round" d="M 4538,8308 L 4538,8158 "/>
 <path fill="none" stroke="rgb(179,179,179)" stroke-linejoin="round" d="M 4538,8308 L 4538,8158 "/>
 <path fill="none" stroke="rgb(179,179,179)" stroke-linejoin="round" d="M 6088,8308 L 6088,8158 "/>
 <path fill="none" stroke="rgb(179,179,179)" stroke-linejoin="round" d="M 6088,8308 L 6088,8158 "/>
 <path fill="none" stroke="rgb(179,179,179)" stroke-linejoin="round" d="M 7639,8308 L 7639,8158 "/>
 <path fill="none" stroke="rgb(179,179,179)" stroke-linejoin="round" d="M 7639,8308 L 7639,8158 "/>
 <path fill="none" stroke="rgb(179,179,179)" stroke-linejoin="round" d="M 9188,8308 L 9188,8158 "/>
 <path fill="none" stroke="rgb(179,179,179)" stroke-linejoin="round" d="M 9188,8308 L 9188,8158 "/>
 <path fill="none" stroke="rgb(179,179,179)" stroke-linejoin="round" d="M 10738,8308 L 10738,8158 "/>
 <path fill="none" stroke="rgb(179,179,179)" stroke-linejoin="round" d="M 10738,8308 L 10738,8158 "/>
 <path fill="none" stroke="rgb(179,179,179)" stroke-linejoin="round" d="M 12288,8308 L 12288,8158 "/>
 <path fill="none" stroke="rgb(179,179,179)" stroke-linejoin="round" d="M 12288,8308 L 12288,8158 "/>
 <path fill="none" stroke="rgb(179,179,179)" stroke-linejoin="round" d="M 13839,8308 L 13839,8158 "/>
 <path fill="none" stroke="rgb(179,179,179)" stroke-linejoin="round" d="M 13839,8308 L 13839,8158 "/>
 <path fill="none" stroke="rgb(179,179,179)" stroke-linejoin="round" d="M 1438,8158 L 13839,8158 "/>
 <path fill="none" stroke="rgb(179,179,179)" stroke-linejoin="round" d="M 1288,8158 L 1438,8158 "/>
 <path fill="none" stroke="rgb(179,179,179)" stroke-linejoin="round" d="M 1288,8158 L 1438,8158 "/>
 <path fill="none" stroke="rgb(179,179,179)" stroke-linejoin="round" d="M 1288,7378 L 1438,7378 "/>
 <path fill="none" stroke="rgb(179,179,179)" stroke-linejoin="round" d="M 1288,7378 L 1438,7378 "/>
 <path fill="none" stroke="rgb(179,179,179)" stroke-linejoin="round" d="M 1288,6599 L 1438,6599 "/>
 <path fill="none" stroke="rgb(179,179,179)" stroke-linejoin="round" d="M 1288,6599 L 1438,6599 "/>
 <path fill="none" stroke="rgb(179,179,179)" stroke-linejoin="round" d="M 1288,5819 L 1438,5819 "/>
 <path fill="none" stroke="rgb(179,179,179)" stroke-linejoin="round" d="M 1288,5819 L 1438,5819 "/>
 <path fill="none" stroke="rgb(179,179,179)" stroke-linejoin="round" d="M 1288,5040 L 1438,5040 "/>
 <path fill="none" stroke="rgb(179,179,179)" stroke-linejoin="round" d="M 1288,5040 L 1438,5040 "/>
 <path fill="none" stroke="rgb(179,179,179)" stroke-linejoin="round" d="M 1288,4262 L 1438,4262 "/>
 <path fill="none" stroke="rgb(179,179,179)" stroke-linejoin="round" d="M 1288,4262 L 1438,4262 "/>
 <path fill="none" stroke="rgb(179,179,179)" stroke-linejoin="round" d="M 1288,3482 L 1438,3482 "/>
 <path fill="none" stroke="rgb(179,179,179)" stroke-linejoin="round" d="M 1288,3482 L 1438,3482 "/>
 <path fill="none" stroke="rgb(179,179,179)" stroke-linejoin="round" d="M 1288,2703 L 1438,2703 "/>
 <path fill="none" stroke="rgb(179,179,179)" stroke-linejoin="round" d="M 1288,2703 L 1438,2703 "/>
 <path fill="none" stroke="rgb(179,179,179)" stroke-linejoin="round" d="M 1288,1923 L 1438,1923 "/>
 <path fill="none" stroke="rgb(179,179,179)" stroke-linejoin="round" d="M 1288,1923 L 1438,1923 "/>
 <path fill="none" stroke="rgb(179,179,179)" stroke-linejoin="round" d="M 1288,1144 L 1438,1144 "/>
 <path fill="none" stroke="rgb(179,179,179)" stroke-linejoin="round" d="M 1288,1144 L 1438,1144 "/>
 <path fill="none" stroke="rgb(179,179,179)" stroke-linejoin="round" d="M 1288,365 L 1438,365 "/>
 <path fill="none" stroke="rgb(179,179,179)" stroke-linejoin="round" d="M 1288,365 L 1438,365 "/>
 <path fill="none" stroke="rgb(179,179,179)" stroke-linejoin="round" d="M 1438,8158 L 1438,365 "/>
 <path fill="rgb(0,69,134)" stroke="none" d="M 1438,6521 L 2988,6988 4538,7378 6088,7690 7639,7924 9188,8080 10738,8158 12288,8158 13839,8158 13839,8158 1438,8158 1438,6521 Z "/>
 <path fill="rgb(255,66,14)" stroke="none" d="M 1438,3170 L 2988,3872 4538,4650 6088,5352 7639,5975 9188,6521 10738,6988 12288,7378 13839,7690 13839,8158 12288,8158 10738,8158 9188,8080 7639,7924 6088,7690 4538,7378 2988,6988 1438,6521 1438,3170 Z "/>
 <path fill="rgb(255,211,32)" stroke="none" d="M 1438,832 L 2988,1144 4538,1534 6088,2001 7639,2547 9188,3170 10738,3872 12288,4650 13839,5352 13839,7690 12288,7378 10738,6988 9188,6521 7639,5975 6088,5352 4538,4650 2988,3872 1438,3170 1438,832 Z "/>
 <path fill="rgb(87,157,28)" stroke="none" d="M 1438,365 L 2988,365 4538,365 6088,365 7639,365 9188,365 10738,365 12288,365 13839,365 13839,5352 12288,4650 10738,3872 9188,3170 7639,2547 6088,2001 4538,1534 2988,1144 1438,832 1438,365 Z "/>
 <text class="SVGTextShape"><tspan class="TextParagraph"><tspan class="TextPosition" x="1342" y="8726"><tspan font-family="Liberation Sans, sans-serif" font-size="353px" font-weight="400" lengthAdjust="spacingAndGlyphs" textLength="191" fill="rgb(0,0,0)" stroke="none" style="white-space: pre">2</tspan></tspan></tspan></text>
 <text class="SVGTextShape"><tspan class="TextParagraph"><tspan class="TextPosition" x="2892" y="8726"><tspan font-family="Liberation Sans, sans-serif" font-size="353px" font-weight="400" lengthAdjust="spacingAndGlyphs" textLength="191" fill="rgb(0,0,0)" stroke="none" style="white-space: pre">3</tspan></tspan></tspan></text>
 <text class="SVGTextShape"><tspan class="TextParagraph"><tspan class="TextPosition" x="4442" y="8726"><tspan font-family="Liberation Sans, sans-serif" font-size="353px" font-weight="400" lengthAdjust="spacingAndGlyphs" textLength="191" fill="rgb(0,0,0)" stroke="none" style="white-space: pre">4</tspan></tspan></tspan></text>
 <text class="SVGTextShape"><tspan class="TextParagraph"><tspan class="TextPosition" x="5992" y="8726"><tspan font-family="Liberation Sans, sans-serif" font-size="353px" font-weight="400" lengthAdjust="spacingAndGlyphs" textLength="191" fill="rgb(0,0,0)" stroke="none" style="white-space: pre">5</tspan></tspan></tspan></text>
 <text class="SVGTextShape"><tspan class="TextParagraph"><tspan class="TextPosition" x="7543" y="8726"><tspan font-family="Liberation Sans, sans-serif" font-size="353px" font-weight="400" lengthAdjust="spacingAndGlyphs" textLength="191" fill="rgb(0,0,0)" stroke="none" style="white-space: pre">6</tspan></tspan></tspan></text>
 <text class="SVGTextShape"><tspan class="TextParagraph"><tspan class="TextPosition" x="9092" y="8726"><tspan font-family="Liberation Sans, sans-serif" font-size="353px" font-weight="400" lengthAdjust="spacingAndGlyphs" textLength="191" fill="rgb(0,0,0)" stroke="none" style="white-space: pre">7</tspan></tspan></tspan></text>
 <text class="SVGTextShape"><tspan class="TextParagraph"><tspan class="TextPosition" x="10642" y="8726"><tspan font-family="Liberation Sans, sans-serif" font-size="353px" font-weight="400" lengthAdjust="spacingAndGlyphs" textLength="191" fill="rgb(0,0,0)" stroke="none" style="white-space: pre">8</tspan></tspan></tspan></text>
 <text class="SVGTextShape"><tspan class="TextParagraph"><tspan class="TextPosition" x="12192" y="8726"><tspan font-family="Liberation Sans, sans-serif" font-size="353px" font-weight="400" lengthAdjust="spacingAndGlyphs" textLength="191" fill="rgb(0,0,0)" stroke="none" style="white-space: pre">9</tspan></tspan></tspan></text>
 <text class="SVGTextShape"><tspan class="TextParagraph"><tspan class="TextPosition" x="13647" y="8726"><tspan font-family="Liberation Sans, sans-serif" font-size="353px" font-weight="400" lengthAdjust="spacingAndGlyphs" textLength="382" fill="rgb(0,0,0)" stroke="none" style="white-space: pre">10</tspan></tspan></tspan></text>
 <text class="SVGTextShape"><tspan class="TextParagraph"><tspan class="TextPosition" x="691" y="8278"><tspan font-family="Liberation Sans, sans-serif" font-size="353px" font-weight="400" lengthAdjust="spacingAndGlyphs" textLength="497" fill="rgb(0,0,0)" stroke="none" style="white-space: pre">0%</tspan></tspan></tspan></text>
 <text class="SVGTextShape"><tspan class="TextParagraph"><tspan class="TextPosition" x="500" y="7498"><tspan font-family="Liberation Sans, sans-serif" font-size="353px" font-weight="400" lengthAdjust="spacingAndGlyphs" textLength="688" fill="rgb(0,0,0)" stroke="none" style="white-space: pre">10%</tspan></tspan></tspan></text>
 <text class="SVGTextShape"><tspan class="TextParagraph"><tspan class="TextPosition" x="500" y="6719"><tspan font-family="Liberation Sans, sans-serif" font-size="353px" font-weight="400" lengthAdjust="spacingAndGlyphs" textLength="688" fill="rgb(0,0,0)" stroke="none" style="white-space: pre">20%</tspan></tspan></tspan></text>
 <text class="SVGTextShape"><tspan class="TextParagraph"><tspan class="TextPosition" x="500" y="5939"><tspan font-family="Liberation Sans, sans-serif" font-size="353px" font-weight="400" lengthAdjust="spacingAndGlyphs" textLength="688" fill="rgb(0,0,0)" stroke="none" style="white-space: pre">30%</tspan></tspan></tspan></text>
 <text class="SVGTextShape"><tspan class="TextParagraph"><tspan class="TextPosition" x="500" y="5160"><tspan font-family="Liberation Sans, sans-serif" font-size="353px" font-weight="400" lengthAdjust="spacingAndGlyphs" textLength="688" fill="rgb(0,0,0)" stroke="none" style="white-space: pre">40%</tspan></tspan></tspan></text>
 <text class="SVGTextShape"><tspan class="TextParagraph"><tspan class="TextPosition" x="500" y="4382"><tspan font-family="Liberation Sans, sans-serif" font-size="353px" font-weight="400" lengthAdjust="spacingAndGlyphs" textLength="688" fill="rgb(0,0,0)" stroke="none" style="white-space: pre">50%</tspan></tspan></tspan></text>
 <text class="SVGTextShape"><tspan class="TextParagraph"><tspan class="TextPosition" x="500" y="3602"><tspan font-family="Liberation Sans, sans-serif" font-size="353px" font-weight="400" lengthAdjust="spacingAndGlyphs" textLength="688" fill="rgb(0,0,0)" stroke="none" style="white-space: pre">60%</tspan></tspan></tspan></text>
 <text class="SVGTextShape"><tspan class="TextParagraph"><tspan class="TextPosition" x="500" y="2823"><tspan font-family="Liberation Sans, sans-serif" font-size="353px" font-weight="400" lengthAdjust="spacingAndGlyphs" textLength="688" fill="rgb(0,0,0)" stroke="none" style="white-space: pre">70%</tspan></tspan></tspan></text>
 <text class="SVGTextShape"><tspan class="TextParagraph"><tspan class="TextPosition" x="500" y="2043"><tspan font-family="Liberation Sans, sans-serif" font-size="353px" font-weight="400" lengthAdjust="spacingAndGlyphs" textLength="688" fill="rgb(0,0,0)" stroke="none" style="white-space: pre">80%</tspan></tspan></tspan></text>
 <text class="SVGTextShape"><tspan class="TextParagraph"><tspan class="TextPosition" x="500" y="1264"><tspan font-family="Liberation Sans, sans-serif" font-size="353px" font-weight="400" lengthAdjust="spacingAndGlyphs" textLength="688" fill="rgb(0,0,0)" stroke="none" style="white-space: pre">90%</tspan></tspan></tspan></text>
 <text class="SVGTextShape"><tspan class="TextParagraph"><tspan class="TextPosition" x="308" y="485"><tspan font-family="Liberation Sans, sans-serif" font-size="353px" font-weight="400" lengthAdjust="spacingAndGlyphs" textLength="879" fill="rgb(0,0,0)" stroke="none" style="white-space: pre">100%</tspan></tspan></tspan></text>
 <path fill="rgb(0,69,134)" stroke="none" d="M 14574,5338 L 14468,5338 14468,5127 14679,5127 14679,5338 14574,5338 Z "/>
 <path fill="rgb(255,66,14)" stroke="none" d="M 14574,4840 L 14468,4840 14468,4629 14679,4629 14679,4840 14574,4840 Z "/>
 <path fill="rgb(255,211,32)" stroke="none" d="M 14574,4343 L 14468,4343 14468,4132 14679,4132 14679,4343 14574,4343 Z "/>
 <path fill="rgb(87,157,28)" stroke="none" d="M 14574,3845 L 14468,3845 14468,3634 14679,3634 14679,3845 14574,3845 Z "/>
 <text class="SVGTextShape"><tspan class="TextParagraph"><tspan class="TextPosition" x="14779" y="3859"><tspan font-family="Liberation Sans, sans-serif" font-size="353px" font-weight="400" lengthAdjust="spacingAndGlyphs" textLength="879" fill="rgb(0,0,0)" stroke="none" style="white-space: pre">Tier 4</tspan></tspan></tspan></text>
 <text class="SVGTextShape"><tspan class="TextParagraph"><tspan class="TextPosition" x="14779" y="4357"><tspan font-family="Liberation Sans, sans-serif" font-size="353px" font-weight="400" lengthAdjust="spacingAndGlyphs" textLength="879" fill="rgb(0,0,0)" stroke="none" style="white-space: pre">Tier 3</tspan></tspan></tspan></text>
 <text class="SVGTextShape"><tspan class="TextParagraph"><tspan class="TextPosition" x="14779" y="4854"><tspan font-family="Liberation Sans, sans-serif" font-size="353px" font-weight="400" lengthAdjust="spacingAndGlyphs" textLength="879" fill="rgb(0,0,0)" stroke="none" style="white-space: pre">Tier 2</tspan></tspan></tspan></text>
 <text class="SVGTextShape"><tspan class="TextParagraph"><tspan class="TextPosition" x="14779" y="5352"><tspan font-family="Liberation Sans, sans-serif" font-size="353px" font-weight="400" lengthAdjust="spacingAndGlyphs" textLength="879" fill="rgb(0,0,0)" stroke="none" style="white-space: pre">Tier 1</tspan></tspan></tspan></text>
</svg>